<svg xmlns="http://www.w3.org/2000/svg" width="138.336" height="138.336" viewBox="0 0 138.336 138.336"><defs><style>.a{fill:#fff;}</style></defs><path class="a" d="M39.139,44.278A16.139,16.139,0,1,0,23,28.139,16.158,16.158,0,0,0,39.139,44.278Zm0-27.667A11.528,11.528,0,1,1,27.611,28.139,11.541,11.541,0,0,1,39.139,16.611Z" transform="translate(30.029 15.667)"/><path class="a" d="M54.861,126.248l35.37-51.085C103.5,57.476,101.579,28.4,86.124,12.953a44.21,44.21,0,0,0-62.528,0C8.142,28.4,6.224,57.474,19.437,75.091Zm-28-110.037a39.6,39.6,0,0,1,56.008,0c13.949,13.947,15.667,40.2,3.627,56.254L54.861,118.146,23.179,72.4C11.19,56.413,12.91,30.157,26.857,16.211Z" transform="translate(13.899 0)"/><path class="a" d="M97.1,43.017a2.305,2.305,0,0,0-.54,4.579c24.246,2.854,37.159,10.546,37.159,15,0,6.257-24.559,14.986-64.557,14.986S4.611,68.856,4.611,62.6c0-4.457,12.914-12.148,37.159-15a2.305,2.305,0,1,0-.54-4.579C16.955,45.876,0,53.927,0,62.6c0,9.739,23.759,19.6,69.168,19.6s69.168-9.859,69.168-19.6C138.336,53.927,121.381,45.876,97.1,43.017Z" transform="translate(0 56.14)"/></svg>